<svg width="170" height="232" viewBox="0 0 170 232" fill="none" xmlns="http://www.w3.org/2000/svg">
<path d="M113.893 227.77L106.47 231.069C105.83 231.353 105.139 231.5 104.439 231.5H101L97.0945 231.066C96.6996 231.022 96.3113 230.931 95.9379 230.796L91 229L83.5 225.5L78.7719 223.351C78.2609 223.119 77.7145 222.974 77.1556 222.923L72.5 222.5L68.6897 222.077C68.2321 222.026 67.7697 222.038 67.3155 222.114L62.7903 222.868C62.2668 222.956 61.7327 222.959 61.2081 222.878L55.5 222L48.5 221L39.5 219.5L29.9865 216.646C29.663 216.549 29.3502 216.419 29.0528 216.259L23.3568 213.192C23.1193 213.064 22.8926 212.917 22.6788 212.753L16.9234 208.326C16.6419 208.109 16.3843 207.863 16.155 207.592L11.3075 201.863C11.103 201.622 10.9218 201.361 10.7666 201.085L6.75132 193.947C6.58421 193.65 6.44792 193.336 6.34457 193.012L3 182.5L2 177L1.5 170V165L2.4373 157.97C2.47901 157.657 2.55023 157.349 2.65002 157.05L5.31187 149.064C5.43685 148.689 5.60584 148.331 5.8153 147.996L10.5 140.5L16.1469 132.03C16.3814 131.678 16.5703 131.298 16.7091 130.899L20.3604 120.401C20.4533 120.134 20.5234 119.86 20.5699 119.581L21.5 114L21.9568 108.975C21.9855 108.659 21.9841 108.341 21.9525 108.025L21.5 103.5L20.5 98L16.6861 85.128C16.5625 84.7111 16.3852 84.3121 16.1585 83.9411L11 75.5L6.29526 67.9724C6.09903 67.6584 5.93828 67.3236 5.81596 66.9742L2.68207 58.0202C2.56106 57.6744 2.47841 57.3164 2.43561 56.9526L1.5 49L1.02408 40.9093C1.00805 40.6369 1.01435 40.3636 1.04292 40.0923L1.92997 31.6653C1.97645 31.2237 2.08154 30.7903 2.24247 30.3765L5.5 22L9.28462 14.4308C9.42788 14.1442 9.59833 13.8722 9.79364 13.6183L13.9969 8.15401C14.3301 7.72093 14.7319 7.34539 15.1865 7.04231L20.0668 3.78878C20.3548 3.59678 20.662 3.4352 20.9834 3.30665L24.9435 1.7226C25.3132 1.57473 25.6992 1.47154 26.0933 1.41524L28.3371 1.09469C28.7771 1.03185 29.2234 1.02793 29.6644 1.08305L32.3611 1.42013C32.7853 1.47316 33.2009 1.58037 33.5979 1.73914L40.0166 4.30665C40.338 4.4352 40.6452 4.59678 40.9332 4.78878L45.9879 8.15857C46.328 8.38533 46.6391 8.65296 46.9141 8.95545L51.5 14L55.5 19L58.6556 22.6064C58.8846 22.8681 59.1402 23.1052 59.4184 23.3138L62.471 25.6032C62.8221 25.8666 63.2064 26.0826 63.614 26.2456L70.0738 28.8295C70.3573 28.9429 70.6507 29.0301 70.9501 29.09L75.0145 29.9029C75.3374 29.9675 75.6658 30 75.9951 30H77.4306C77.809 30 78.1861 29.957 78.5549 29.872L84.5 28.5L92.5 25.5L98.468 23.6637C98.8216 23.5549 99.1861 23.4857 99.555 23.4573L105.059 23.0339C105.352 23.0114 105.647 23.0147 105.94 23.044L109.852 23.4352C110.282 23.4782 110.705 23.5769 111.11 23.7287L114.5 25L120.483 27.301C120.826 27.4333 121.155 27.6031 121.461 27.8075L125.088 30.2254C125.362 30.408 125.617 30.6173 125.85 30.8501L130.527 35.5265C130.841 35.8408 131.112 36.1955 131.332 36.5814L134.685 42.4481C134.894 42.8146 135.056 43.206 135.167 43.6132L136.324 47.854C136.441 48.2828 136.5 48.7252 136.5 49.1696V53.0049C136.5 53.3342 136.467 53.6626 136.403 53.9855L135.5 58.5L134 64L133.106 69.3657C133.036 69.7868 133.02 70.2152 133.058 70.6404L133.5 75.5L133.92 79.7008C133.973 80.2302 134.11 80.7478 134.326 81.234L136 85L138.827 90.1831C138.942 90.3941 139.072 90.5965 139.217 90.7888L141.571 93.9286C141.856 94.3076 142.192 94.6443 142.571 94.9286L145.7 97.2752C145.9 97.4249 146.11 97.5594 146.33 97.6776L152.5 101L157.435 104.141C157.81 104.379 158.151 104.667 158.45 104.995L163 110L165.186 113.06C165.395 113.353 165.571 113.667 165.713 113.997L168.215 119.834C168.404 120.276 168.529 120.742 168.585 121.22L169.441 128.501C169.48 128.833 169.486 129.168 169.458 129.501L169.055 134.334C169.019 134.776 168.923 135.211 168.772 135.628L167.154 140.078C167.051 140.359 166.924 140.63 166.774 140.888L163.5 146.5L160.498 150.36C160.168 150.784 159.772 151.152 159.325 151.45L157.336 152.776C157.113 152.925 156.877 153.056 156.632 153.167L151.5 155.5L147.389 157.327C147.13 157.442 146.882 157.579 146.646 157.736L141.412 161.225C141.138 161.408 140.883 161.617 140.65 161.85L136.85 165.65C136.617 165.883 136.408 166.138 136.225 166.412L132.98 171.279C132.663 171.756 132.429 172.284 132.29 172.84L131.19 177.238C131.064 177.743 131.018 178.264 131.052 178.783L131.5 185.5L132 194L131.537 203.263C131.512 203.752 131.416 204.234 131.252 204.695L129.197 210.448C129.066 210.815 128.893 211.165 128.681 211.491L122.929 220.34C122.645 220.777 122.294 221.167 121.889 221.496L115.015 227.081C114.673 227.359 114.296 227.591 113.893 227.77Z" fill="#2ADD1A" stroke="#2ADD1A"/>
<path d="M54.8278 88.5H56.2082C56.7245 88.5 57.2292 88.3472 57.6588 88.0608C58.2001 87.6999 58.5874 87.1503 58.7452 86.5192L59.5 83.5L61.2856 77.2505C61.4277 76.7532 61.6461 76.2809 61.9329 75.8506L64.5 72L68.2225 67.3469C68.4071 67.1161 68.6119 66.9021 68.8343 66.7075L76.5 60L84.071 54.7949C84.3562 54.5988 84.6611 54.4329 84.9806 54.2998L90.5 52L93.6511 50.8184C94.2124 50.6078 94.8071 50.5 95.4067 50.5H97.7997C98.2643 50.5 98.7266 50.5647 99.1733 50.6924L102 51.5L106.89 52.7226C107.621 52.9052 108.3 53.2503 108.879 53.7322L110.028 54.6902C110.666 55.2217 111.161 55.9036 111.47 56.6744L112.738 59.8438C112.912 60.2791 113.024 60.7367 113.07 61.2032L113.5 65.5V67.4389C113.5 68.1385 113.353 68.8303 113.069 69.4696L111.79 72.3467C111.598 72.78 111.345 73.1838 111.038 73.5457L106.259 79.1942C106.087 79.3977 105.898 79.5872 105.696 79.7607L99.4673 85.0994C99.157 85.3655 98.8151 85.5924 98.4495 85.7753L91 89.5L81.942 92.8372C81.648 92.9455 81.3445 93.0259 81.0354 93.0774L74.0805 94.2366C73.0526 94.4079 72.1039 94.8961 71.367 95.633L71.1809 95.8191C70.7311 96.2689 70.3713 96.8004 70.1207 97.3851L67.5 103.5L64.5 110L63.2109 114.297C63.071 114.763 63 115.247 63 115.734V119.97C63 120.322 63.0372 120.674 63.111 121.018L64.5 127.5L65.0312 129.625C65.3328 130.831 66.0735 131.882 67.1084 132.572L67.4635 132.809C68.1441 133.263 68.9256 133.543 69.7395 133.624L73.5 134H78.417C79.1307 134 79.8362 133.847 80.486 133.552L84.6319 131.667C84.8769 131.556 85.1125 131.425 85.3364 131.276L89.1982 128.701C89.3992 128.567 89.5901 128.419 89.7696 128.257L93.9429 124.501C94.3123 124.169 94.63 123.783 94.8856 123.357L97.0116 119.814C97.3343 119.276 97.5529 118.682 97.6561 118.064L98.5 113L99.872 107.055C99.957 106.686 100 106.309 100 105.931V102.5L99.8451 100.177C99.8155 99.7325 99.8956 99.2875 100.078 98.8813C100.465 98.0226 101.268 97.4252 102.202 97.3024L103.246 97.165C104.067 97.057 104.901 97.1721 105.662 97.4981L107.376 98.2326C107.79 98.4101 108.178 98.6426 108.53 98.924L111.506 101.305C112.468 102.074 113.112 103.172 113.315 104.387L113.88 107.781C113.96 108.258 113.97 108.744 113.91 109.223L113.5 112.5L112.582 119.382C112.528 119.793 112.422 120.194 112.269 120.579L110.5 125L108.637 130.589C108.546 130.862 108.479 131.143 108.436 131.428L107 141L105.075 151.105C105.025 151.368 104.954 151.626 104.863 151.878L103 157L98.5 167L93 176.5L88 184.5L83.7566 190.629C83.5859 190.876 83.3933 191.107 83.1812 191.319L77.6565 196.844C77.2225 197.277 76.7124 197.628 76.1516 197.877L73.1353 199.218C72.7138 199.405 72.2684 199.533 71.8117 199.598L70.1685 199.833C69.4001 199.943 68.6166 199.872 67.8802 199.627L66.6352 199.212C66.2136 199.071 65.8126 198.875 65.4429 198.629L62.7066 196.804C61.9184 196.279 61.2958 195.54 60.911 194.675L59.8148 192.208C59.6062 191.739 59.4711 191.24 59.4144 190.73L59.0614 187.552C59.0206 187.185 59.0206 186.815 59.0614 186.448L59.4415 183.026C59.4804 182.676 59.5561 182.332 59.6675 181.997L60.5 179.5L61.1441 177.246C61.3775 176.429 61.8153 175.685 62.4161 175.084L64.5 173L72 165L77.5 160L82 156L85.5973 153.302C85.8651 153.101 86.112 152.874 86.3344 152.624L89.5607 148.994C89.8523 148.666 90.0994 148.301 90.2957 147.909L92.2006 144.099C92.3993 143.701 92.5442 143.279 92.6313 142.843L93.5 138.5L94.4117 135.765C94.4702 135.589 94.5 135.406 94.5 135.221V134.651C94.5 134.015 93.9845 133.5 93.3486 133.5C93.1213 133.5 92.8991 133.567 92.7099 133.693L90.6214 135.086C90.2094 135.36 89.7589 135.572 89.2847 135.715L85.5006 136.85C85.1678 136.95 84.8254 137.015 84.4791 137.043L79 137.5H74.5L70 137L65.9558 136.101C65.6526 136.034 65.3563 135.938 65.0708 135.816L62.5509 134.736C62.1849 134.579 61.839 134.379 61.5205 134.14L58.5357 131.902C58.1801 131.635 57.8618 131.322 57.5889 130.971L55.0258 127.676C54.6778 127.229 54.4084 126.725 54.2292 126.187L52.6124 121.337C52.5375 121.113 52.4788 120.883 52.4364 120.65L51.5 115.5L51 111.5V109.2C51 108.736 51.0647 108.273 51.1924 107.827L52 105L53 102L54.3422 98.8682C54.4472 98.6231 54.5325 98.37 54.5972 98.1113L54.8589 97.0646C54.951 96.6958 54.9362 96.3085 54.816 95.9479C54.6171 95.3512 54.1488 94.8829 53.5521 94.684L53 94.5L49 93.5L46.895 92.7983C46.3036 92.6012 45.7542 92.2952 45.2752 91.896L43.6149 90.5124C43.2075 90.173 42.8568 89.7709 42.5758 89.3213L41.1316 87.0105C40.7163 86.3461 40.463 85.5935 40.3921 84.8132L40.0529 81.0816C40.0177 80.6952 40.0277 80.306 40.0826 79.9218L40.4362 77.4463C40.4787 77.1494 40.5477 76.8569 40.6426 76.5723L41.5 74L42.718 70.346C42.9045 69.7864 43.1886 69.2643 43.5571 68.8037L44.8695 67.1631C44.9547 67.0566 45.0688 66.9771 45.1982 66.9339C45.7436 66.7521 46.2665 67.2624 46.0982 67.8121L46 68.1328L45.8608 68.792C45.6272 69.8979 45.7752 71.0504 46.2807 72.0614L46.5 72.5L46.8995 73.4989C47.2899 74.4747 47.3628 75.5488 47.1079 76.5685L47 77L46.4604 78.6187C46.1597 79.5208 46.1225 80.49 46.3531 81.4125L46.6041 82.4165C46.8614 83.4454 47.4391 84.3659 48.2539 85.0449L49.6619 86.2182C49.8869 86.4057 50.1279 86.5731 50.3821 86.7184L52.3471 87.8412C53.1026 88.2729 53.9577 88.5 54.8278 88.5Z" fill="black" stroke="black"/>
<path d="M81 89.5L77.9891 90.3603C77.6663 90.4525 77.3283 90.4785 76.9953 90.4369C75.2891 90.2236 74.3063 88.3874 75.0753 86.8494L75.5 86L80.7399 78.3783C80.9129 78.1266 81.1087 77.8913 81.3246 77.6754L87.5 71.5L93.5 66L98.1982 62.7112C98.3991 62.5706 98.6101 62.4449 98.8295 62.3353L100.146 61.677C101.029 61.2356 102.023 61.0653 103.002 61.1878L104.324 61.353C105.093 61.4491 105.82 61.7562 106.425 62.2401C107.421 63.0364 108 64.242 108 65.5168V67.3197C108 68.0959 107.819 68.8615 107.472 69.5557L105.978 72.5435C105.663 73.174 105.218 73.7308 104.672 74.1772L100 78L94 82.5L88.2154 86.9497C87.7423 87.3136 87.2078 87.5899 86.6373 87.7654L81 89.5Z" fill="#2ADD1A" stroke="#2ADD1A"/>
<path d="M74.7338 188.299L72.176 191.177C71.4167 192.031 70.3791 192.589 69.2476 192.75C68.119 192.912 66.9697 192.669 66.003 192.064L65.374 191.671C64.1804 190.925 63.3565 189.711 63.1047 188.326L62.7574 186.416C62.5892 185.491 62.6852 184.537 63.0343 183.664L64.2683 180.579C64.4222 180.195 64.6233 179.831 64.867 179.495L68.2693 174.817C68.4228 174.606 68.5928 174.407 68.7774 174.223L74.5 168.5L80 163L83.3717 159.628C83.457 159.543 83.5506 159.466 83.651 159.399L83.8904 159.24C85.0058 158.496 86.5 159.296 86.5 160.636C86.5 160.876 86.4487 161.113 86.3495 161.331L84 166.5L81.5 174.5L78.6832 182.011C78.5614 182.336 78.4061 182.648 78.2199 182.94L75.2151 187.662C75.0719 187.887 74.911 188.1 74.7338 188.299Z" fill="#2ADD1A" stroke="#2ADD1A"/>
</svg>
